HIERARCHY
ROOT SpineBase
{
  OFFSET 0.000000 0.000000 0.000000
  CHANNELS 6 Xposition Yposition Zposition Zrotation Xrotation Yrotation
  JOINT SpineMid
  {
    OFFSET 0.000000 30.723538 0.000000
    CHANNELS 3 Zrotation Xrotation Yrotation
    JOINT SpineShoulder
    {
      OFFSET -0.046704 22.788029 -0.686846
      CHANNELS 3 Zrotation Xrotation Yrotation
      JOINT Neck
      {
        OFFSET -0.048366 7.525510 -0.530908
        CHANNELS 3 Zrotation Xrotation Yrotation
        JOINT Head
        {
          OFFSET -7.086007 10.852614 1.371852
          CHANNELS 3 Zrotation Xrotation Yrotation
          End Site
          {
            OFFSET 0 0 0
          }
        }
      }
      JOINT ShoulderLeft
      {
        OFFSET -9.529182 -0.648722 12.663488
        CHANNELS 3 Zrotation Xrotation Yrotation
        JOINT ElbowLeft
        {
          OFFSET -1.887972 -28.453474 -4.112053
          CHANNELS 3 Zrotation Xrotation Yrotation
          JOINT WristLeft
          {
            OFFSET -1.322056 -27.101075 -8.457033
            CHANNELS 3 Zrotation Xrotation Yrotation
            JOINT HandLeft
            {
              OFFSET 4.504060 -6.534517 1.543406
              CHANNELS 3 Zrotation Xrotation Yrotation
              JOINT HandTipLeft
              {
                OFFSET -0.693094 -1.061429 1.113569
                CHANNELS 3 Zrotation Xrotation Yrotation
                End Site
                {
                  OFFSET 0 0 0
                }
              }
              JOINT ThumbLeft
              {
                OFFSET 0.586918 1.486110 -2.722516
                CHANNELS 3 Zrotation Xrotation Yrotation
                End Site
                {
                  OFFSET 0 0 0
                }
              }
            }
          }
        }
      }
      JOINT ShoulderRight
      {
        OFFSET 5.586085 -4.527618 -14.127163
        CHANNELS 3 Zrotation Xrotation Yrotation
        JOINT ElbowRight
        {
          OFFSET -3.748831 -25.078271 -5.174275
          CHANNELS 3 Zrotation Xrotation Yrotation
          JOINT WristRight
          {
            OFFSET -10.498074 -17.012617 5.524899
            CHANNELS 3 Zrotation Xrotation Yrotation
            JOINT HandRight
            {
              OFFSET -1.595549 -3.216992 4.109107
              CHANNELS 3 Zrotation Xrotation Yrotation
              JOINT HandTipRight
              {
                OFFSET -4.462206 -4.105011 2.470415
                CHANNELS 3 Zrotation Xrotation Yrotation
                End Site
                {
                  OFFSET 0 0 0
                }
              }
              JOINT ThumbRight
              {
                OFFSET 5.461837 -3.101678 -0.269101
                CHANNELS 3 Zrotation Xrotation Yrotation
                End Site
                {
                  OFFSET 0 0 0
                }
              }
            }
          }
        }
      }
    }
  }
  JOINT HipLeft
  {
    OFFSET -3.563685 -0.340273 3.009827
    CHANNELS 3 Zrotation Xrotation Yrotation
    JOINT KneeLeft
    {
      OFFSET 4.043534 -32.065129 5.869205
      CHANNELS 3 Zrotation Xrotation Yrotation
      JOINT AnkleLeft
      {
        OFFSET 2.049324 -30.596794 5.365730
        CHANNELS 3 Zrotation Xrotation Yrotation
        JOINT FootLeft
        {
          OFFSET -6.225592 -5.751474 -2.335688
          CHANNELS 3 Zrotation Xrotation Yrotation
          End Site
          {
            OFFSET 0 0 0
          }
        }
      }
    }
  }
  JOINT HipRight
  {
    OFFSET 2.865348 1.615186 -9.564594
    CHANNELS 3 Zrotation Xrotation Yrotation
    JOINT KneeRight
    {
      OFFSET 9.365216 -27.619556 -2.659810
      CHANNELS 3 Zrotation Xrotation Yrotation
      JOINT AnkleRight
      {
        OFFSET 8.041619 -33.869275 -2.589036
        CHANNELS 3 Zrotation Xrotation Yrotation
        JOINT FootRight
        {
          OFFSET -2.954606 -5.953985 -7.423100
          CHANNELS 3 Zrotation Xrotation Yrotation
          End Site
          {
            OFFSET 0 0 0
          }
        }
      }
    }
  }
}
MOTION
Frames: 7
Frame Time: 0.033333
30.745410 69.090574 341.024406 1.681246 0.088898 59.644445 0.087109 -0.098567 -59.591144 -0.010529 0.031777 0.072604 -1.548419 -0.782757 -0.577779 0.000000 0.000000 0.000000 -1.028550 -2.836554 -0.043429 -0.362194 7.290832 -0.431065 -58.804426 56.167209 100.560489 63.933227 -26.758855 -26.346500 0.000000 0.000000 0.000000 0.000000 0.000000 0.000000 4.519357 0.668831 -1.597250 -6.249282 1.335614 -0.022360 -4.417480 9.291050 -10.729798 9.090765 -5.483293 10.635090 0.000000 0.000000 0.000000 0.000000 0.000000 0.000000 0.537145 3.643692 -59.615103 6.430067 1.029573 1.155178 -1.057151 -0.483872 -6.172418 0.000000 0.000000 0.000000 2.775910 0.959951 -58.927716 -0.062659 -0.896501 -0.445459 -2.216077 -2.059651 -0.361653 0.000000 0.000000 0.000000
30.438669 68.999570 341.358579 1.926699 0.182762 58.802693 0.115461 -0.118821 -58.742617 0.000974 0.034327 0.085015 -3.038792 -1.406813 -0.809827 0.000000 0.000000 0.000000 -0.907424 -2.127363 -0.176267 -0.746063 6.749887 -0.338937 -49.654187 59.682058 95.900258 58.745075 -26.914448 -35.283996 0.000000 0.000000 0.000000 0.000000 0.000000 0.000000 5.537814 1.246769 -2.035515 -7.348308 0.872029 0.169700 -3.993579 10.585278 -10.828837 8.282657 -7.290857 10.585410 0.000000 0.000000 0.000000 0.000000 0.000000 0.000000 0.481844 4.214551 -58.783806 7.488975 0.789058 1.356984 -1.679557 -0.494110 -6.563217 0.000000 0.000000 0.000000 2.848800 1.130645 -58.039083 -0.110681 -0.851793 -0.452489 -2.351425 -2.336461 -0.425746 0.000000 0.000000 0.000000
30.214576 68.880050 341.648708 2.270887 0.347311 57.794469 0.148329 -0.144937 -57.726159 0.012094 0.034051 0.102047 -4.794496 -2.367679 -1.244055 0.000000 0.000000 0.000000 -0.903906 -1.740437 -0.299782 -1.131168 6.383549 -0.259330 -36.409593 62.368560 86.491944 54.458022 -25.685858 -49.008661 0.000000 0.000000 0.000000 0.000000 0.000000 0.000000 6.195476 1.103534 -2.282677 -8.137476 1.452993 0.042475 -4.281793 10.333314 -10.804118 7.189124 -7.414716 9.397997 0.000000 0.000000 0.000000 0.000000 0.000000 0.000000 0.090199 4.976345 -57.830920 8.885627 0.620510 1.637668 -2.832619 -0.991403 -6.201927 0.000000 0.000000 0.000000 2.783466 1.441899 -56.973191 -0.132962 -0.851157 -0.475515 -2.433178 -2.599367 -0.489779 0.000000 0.000000 0.000000
30.009422 68.726767 341.925726 2.608048 0.512630 56.518168 0.169236 -0.165807 -56.442919 0.026080 0.035853 0.118561 -6.269248 -3.259074 -1.692061 0.000000 0.000000 0.000000 -0.755168 -1.736770 -0.408709 -1.666490 6.276418 -0.171612 -20.466761 63.620566 74.068686 48.206409 -24.985774 -67.676574 0.000000 0.000000 0.000000 0.000000 0.000000 0.000000 7.152783 0.752415 -2.537533 -9.256938 2.176202 -0.030947 -4.632509 11.291907 -11.717743 5.935131 -7.222088 7.335601 0.000000 0.000000 0.000000 0.000000 0.000000 0.000000 -0.446241 5.880709 -56.635349 10.617505 0.372124 1.997664 -3.990465 -1.678808 -5.612799 0.000000 0.000000 0.000000 2.639852 1.795705 -55.644419 -0.134549 -0.744633 -0.475229 -2.469172 -2.936035 -0.575839 0.000000 0.000000 0.000000
29.824984 68.564934 342.190654 2.891143 0.643925 54.973767 0.172234 -0.194577 -54.892679 0.030056 0.018070 0.132188 -7.290495 -4.135365 -2.225719 0.000000 0.000000 0.000000 0.360783 -2.081828 -0.584459 -3.181580 6.242526 0.076959 -9.505625 63.023974 64.479203 44.697002 -22.380906 -75.147329 0.000000 0.000000 0.000000 0.000000 0.000000 0.000000 8.309535 0.164120 -2.740720 -10.480334 3.223393 -0.099989 -5.203891 12.671071 -13.240871 5.842187 -7.817865 7.168934 0.000000 0.000000 0.000000 0.000000 0.000000 0.000000 -1.143399 6.856064 -55.194222 12.509883 0.142353 2.402221 -4.522049 -2.642255 -4.898474 0.000000 0.000000 0.000000 2.805189 2.353108 -53.945973 -0.157093 -1.193516 -0.630166 -2.466896 -3.071207 -0.611285 0.000000 0.000000 0.000000
29.637157 68.387277 342.518886 3.284083 0.771860 53.565798 0.225520 -0.255606 -53.475074 0.050054 -0.006740 0.154092 -8.048939 -5.113070 -2.887323 0.000000 0.000000 0.000000 0.671646 -1.402255 -0.797488 -2.440211 2.725330 -0.148901 8.800327 60.813558 46.524135 44.247830 -12.586888 -73.303225 0.000000 0.000000 0.000000 0.000000 0.000000 0.000000 9.471561 -0.555731 -2.947306 -11.923417 4.279978 -0.086057 -6.019341 13.848072 -15.055419 4.871371 -7.532981 5.571273 0.000000 0.000000 0.000000 0.000000 0.000000 0.000000 -1.876070 7.999509 -53.879310 14.410599 -0.160889 2.829416 -4.765036 -3.666989 -4.216013 0.000000 0.000000 0.000000 3.199372 3.147869 -52.310284 -0.254002 -2.170531 -0.929740 -1.724015 -3.560896 -1.230736 0.000000 0.000000 0.000000
29.547502 68.257914 342.731203 3.475149 0.787178 52.034198 0.177228 -0.172647 -51.943278 -0.019197 -0.006220 0.152699 -9.217319 -6.116223 -3.545680 0.000000 0.000000 0.000000 0.552260 -1.503524 -0.778888 -2.541236 3.509867 -0.147551 18.250390 56.547134 38.848404 41.220716 -7.625423 -73.001713 0.000000 0.000000 0.000000 0.000000 0.000000 0.000000 10.401274 -1.419717 -2.911714 -12.801790 5.266036 -0.022276 -6.525078 17.517260 -18.615173 7.494588 -8.717830 8.495826 0.000000 0.000000 0.000000 0.000000 0.000000 0.000000 -2.617770 8.951448 -52.439700 16.143433 -0.397270 3.221310 -4.467425 -4.601149 -3.592739 0.000000 0.000000 0.000000 3.648908 4.039041 -50.534954 -0.226032 -3.303893 -1.274047 -1.336471 -3.654375 -1.447001 0.000000 0.000000 0.000000
